<svg xmlns="http://www.w3.org/2000/svg" width="993.047" height="100" class="tds-icon tds-icon-logo-wordmark tds-site-logo-icon" viewBox="0 0 993.047 100"><g transform="translate(-11.022517,-5)"><path d="m 251.35031,105 h 81.69576 c 10.95918,-2.36402 19.56164,-10.09815 22.30923,-20.057309 h -126 C 232.05,94.82592 240.51227,102.5427 251.35031,105 Z" style="stroke-width:3.00055"/><path d="m 251.35031,64.598852 h 81.69576 c 10.95918,-2.364015 19.56164,-10.098144 22.30923,-20.057307 h -126 c 2.6947,9.883232 11.15697,17.600006 21.99501,20.057307 z" style="stroke-width:3.00055"/><path d="m 251.35031,25.057305 h 81.69576 C 344.00525,22.693291 352.60771,14.959163 355.3553,5 h -126 c 2.6947,9.883232 11.15697,17.600004 21.99501,20.057305 z" style="stroke-width:3.00055"/></g><g transform="translate(-5,-5)"><path d="m 894.09683,25.057305 h 81.90002 C 986.86199,22.600004 995.34541,14.883232 998.04684,5 h -126 c 2.70143,9.883232 11.18485,17.600004 22.04999,20.057305 z" style="stroke-width:3.0043"/><path d="m 872.04684,105 h 22.21578 V 64.885385 h 81.56843 V 105 h 22.21579 V 44.828078 h -126 z" style="stroke-width:3.08235"/></g><path d="M 533.12941,19.770772 C 544.44112,16.905442 553.86757,8.882518 556.38127,0 h -119.7157 v 59.312321 h 97.72068 V 79.942694 H 457.71792 C 447.27583,83.564351 441.51452,89.127982 436.66557,100 H 555.75284 V 39.828081 H 457.71792 V 19.770775 Z" style="stroke-width:3.00055"/><path d="m 648.71406,0 v 100 h 105.67742 c 10.16694,-3.25118 17.77521,-10.54558 20.32258,-19.48424 H 672.08502 V 0 Z" style="stroke-width:3.11531"/><path d="m 0,0.28653 c 2.5126644,9.850977 10.200299,17.256623 20.045454,19.770775 l 30.927272,3e-6 2.004545,0.859599 L 52.977676,100 h 19.472486 l -1.63e-4,-79.083096 2.004544,-0.859599 H 105.95454 C 115.76814,17.487901 123.43211,9.819403 126,0 H 0 Z" style="stroke-width:2.86448"/></svg>